<?xml version="1.0" encoding="UTF-8" standalone="no"?>
<svg
   width="472"
   height="158"
   viewBox="0 0 472 158"
   fill="none"
   version="1.1"
   id="svg18"
   sodipodi:docname="403.svg"
   inkscape:version="1.4.3 (0d15f75, 2025-12-25)"
   xmlns:inkscape="http://www.inkscape.org/namespaces/inkscape"
   xmlns:sodipodi="http://sodipodi.sourceforge.net/DTD/sodipodi-0.dtd"
   xmlns="http://www.w3.org/2000/svg"
   xmlns:svg="http://www.w3.org/2000/svg">
  <defs
     id="defs18" />
  <sodipodi:namedview
     id="namedview18"
     pagecolor="#505050"
     bordercolor="#eeeeee"
     borderopacity="1"
     inkscape:showpageshadow="0"
     inkscape:pageopacity="0"
     inkscape:pagecheckerboard="0"
     inkscape:deskcolor="#505050"
     inkscape:zoom="0.8938274"
     inkscape:cx="385.98056"
     inkscape:cy="40.835625"
     inkscape:window-width="1440"
     inkscape:window-height="752"
     inkscape:window-x="0"
     inkscape:window-y="30"
     inkscape:window-maximized="1"
     inkscape:current-layer="svg18" />
  <rect
     x="203.103"
     y="41.7015"
     width="22.1453"
     height="20.7141"
     rx="2.63433"
     fill="#465FFF"
     stroke="#465FFF"
     stroke-width="0.752667"
     id="rect1" />
  <rect
     x="246.752"
     y="41.7015"
     width="22.1453"
     height="20.7141"
     rx="2.63433"
     fill="#465FFF"
     stroke="#465FFF"
     stroke-width="0.752667"
     id="rect2" />
  <rect
     x="258.201"
     y="98.2303"
     width="22.1453"
     height="20.7141"
     rx="2.63433"
     fill="#465FFF"
     stroke="#465FFF"
     stroke-width="0.752667"
     id="rect3" />
  <rect
     x="191.654"
     y="98.2303"
     width="22.1453"
     height="20.7141"
     rx="2.63433"
     fill="#465FFF"
     stroke="#465FFF"
     stroke-width="0.752667"
     id="rect4" />
  <rect
     x="207.396"
     y="82.847"
     width="57.5655"
     height="20.7141"
     rx="2.63433"
     fill="#465FFF"
     stroke="#465FFF"
     stroke-width="0.752667"
     id="rect5" />
  <rect
     x="152.769"
     y="15.167"
     width="166.462"
     height="130.311"
     rx="28"
     stroke="#465FFF"
     stroke-width="24"
     id="rect6" />
  <rect
     x="0.0405273"
     y="0.522461"
     width="32.6255"
     height="77.5957"
     rx="6.26271"
     fill="#465FFF"
     id="rect7" />
  <rect
     x="0.0405273"
     y="0.522461"
     width="32.6255"
     height="77.5957"
     rx="6.26271"
     stroke="#465FFF"
     id="rect8" />
  <rect
     x="75.8726"
     y="3.16748"
     width="32.6255"
     height="154.31"
     rx="6.26271"
     fill="#465FFF"
     id="rect9" />
  <rect
     x="75.8726"
     y="3.16748"
     width="32.6255"
     height="154.31"
     rx="6.26271"
     stroke="#465FFF"
     id="rect10" />
  <rect
     x="16.7939"
     y="91.3442"
     width="32.6255"
     height="77.5957"
     rx="6.26271"
     transform="rotate(-90 16.7939 91.3442)"
     fill="#465FFF"
     id="rect11" />
  <rect
     x="16.7939"
     y="91.3442"
     width="32.6255"
     height="77.5957"
     rx="6.26271"
     transform="rotate(-90 16.7939 91.3442)"
     stroke="#465FFF"
     id="rect12" />
  <rect
     x="3.0075626"
     y="-450.61261"
     width="32.6255"
     height="77.595703"
     rx="6.2627101"
     fill="#465fff"
     id="rect13"
     transform="rotate(90)" />
  <rect
     x="3.0075626"
     y="-450.61261"
     width="32.6255"
     height="77.595703"
     rx="6.2627101"
     stroke="#465fff"
     id="rect14"
     transform="rotate(90)" />
  <rect
     x="124.84542"
     y="-450.13889"
     width="32.6255"
     height="77.595703"
     rx="6.2627101"
     fill="#465fff"
     id="rect13-2"
     transform="rotate(90)" />
  <rect
     x="124.84542"
     y="-450.13889"
     width="32.6255"
     height="77.595703"
     rx="6.2627101"
     stroke="#465fff"
     id="rect14-2"
     transform="rotate(90)" />
  <rect
     x="439.334"
     y="3.16748"
     width="32.6255"
     height="154.31"
     rx="6.26271"
     fill="#465FFF"
     id="rect15" />
  <rect
     x="439.334"
     y="3.16748"
     width="32.6255"
     height="154.31"
     rx="6.26271"
     stroke="#465FFF"
     id="rect16" />
  <rect
     x="-91.41436"
     y="381.79416"
     width="32.765842"
     height="57.098423"
     rx="6.28965"
     transform="rotate(-90)"
     fill="#465fff"
     id="rect17"
     style="stroke-width:0.859658" />
  <rect
     x="-91.41436"
     y="381.79416"
     width="32.765842"
     height="57.098423"
     rx="6.28965"
     transform="rotate(-90)"
     stroke="#465fff"
     id="rect18"
     style="stroke-width:0.859658" />
</svg>
